# xmcd
#
# Track frame offsets:
# 150
# 14419
# 30429
# 48893
# 64026
# 82527
# 99323
# 114102
# 128922
#
# Disc length: 1909 seconds
#
# Revision: 0
# Processed by: cddbd v1.4PL0 Copyright (c) Steve Scherf et al.
# Submitted via: Audion 3.0.2 (http://www.panic.com/audion/)
#
DISCID=59077309
DTITLE=blue skies at war - you pour the gasoline, i'll light the match
DYEAR=1900
DGENRE=
TTITLE0=etched in skin
TTITLE1=even if it kills me
TTITLE2=better time
TTITLE3=constant reminder
TTITLE4=last call
TTITLE5=another hero dies
TTITLE6=looking back
TTITLE7=tailor
TTITLE8=no longer here
EXTD=
EXTT0=
EXTT1=
EXTT2=
EXTT3=
EXTT4=
EXTT5=
EXTT6=
EXTT7=
EXTT8=
PLAYORDER=
